Normalized EMG Linear Envelopes
nRows=32
nColumns=17

endheader
time	        VM	        VL	        RF	       GRA	        TA	   ADDLONG	   SEMIMEM	      BFLH	        GM	        GL	       TFL	   GLUTMAX	   GLUTMED	      PIRI	    OBTINT	        QF	
2.2525	  0.085475	  0.136130	  0.881163	  0.138401	  0.170036	  0.103947	  0.009771	  0.035127	  0.016893	  0.015947	  0.279540	  0.042294	  0.086455	  0.233272	  0.833082	  0.059723	
2.253	  0.085365	  0.135534	  0.877001	  0.139282	  0.169514	  0.103866	  0.009744	  0.035262	  0.016990	  0.015960	  0.279397	  0.042856	  0.087643	  0.233408	  0.839905	  0.059906	
2.2535	  0.085247	  0.134925	  0.872700	  0.140167	  0.169011	  0.103780	  0.009719	  0.035393	  0.017093	  0.015975	  0.279246	  0.043420	  0.088851	  0.233534	  0.846653	  0.060083	
2.254	  0.085120	  0.134301	  0.868262	  0.141055	  0.168526	  0.103688	  0.009695	  0.035521	  0.017203	  0.015992	  0.279087	  0.043988	  0.090078	  0.233648	  0.853320	  0.060252	
2.2545	  0.084986	  0.133663	  0.863689	  0.141946	  0.168060	  0.103591	  0.009673	  0.035645	  0.017320	  0.016011	  0.278919	  0.044558	  0.091325	  0.233750	  0.859899	  0.060414	
2.255	  0.084844	  0.133011	  0.858982	  0.142840	  0.167612	  0.103489	  0.009652	  0.035766	  0.017442	  0.016032	  0.278741	  0.045131	  0.092592	  0.233839	  0.866385	  0.060570	
2.2555	  0.084695	  0.132346	  0.854143	  0.143737	  0.167181	  0.103381	  0.009632	  0.035884	  0.017572	  0.016055	  0.278553	  0.045706	  0.093879	  0.233915	  0.872771	  0.060718	
2.256	  0.084538	  0.131667	  0.849173	  0.144637	  0.166768	  0.103267	  0.009614	  0.035998	  0.017708	  0.016080	  0.278353	  0.046283	  0.095187	  0.233976	  0.879051	  0.060860	
2.2565	  0.084375	  0.130974	  0.844075	  0.145539	  0.166371	  0.103147	  0.009598	  0.036109	  0.017851	  0.016107	  0.278143	  0.046861	  0.096515	  0.234023	  0.885219	  0.060995	
2.257	  0.084204	  0.130268	  0.838850	  0.146445	  0.165990	  0.103021	  0.009584	  0.036217	  0.018001	  0.016136	  0.277920	  0.047442	  0.097864	  0.234053	  0.891272	  0.061123	
2.2575	  0.084027	  0.129549	  0.833501	  0.147352	  0.165625	  0.102889	  0.009571	  0.036323	  0.018158	  0.016167	  0.277684	  0.048024	  0.099233	  0.234067	  0.897204	  0.061245	
2.258	  0.083843	  0.128815	  0.828031	  0.148263	  0.165274	  0.102752	  0.009560	  0.036426	  0.018323	  0.016199	  0.277435	  0.048607	  0.100624	  0.234063	  0.903012	  0.061360	
2.2585	  0.083652	  0.128069	  0.822443	  0.149176	  0.164938	  0.102608	  0.009552	  0.036527	  0.018494	  0.016234	  0.277172	  0.049191	  0.102036	  0.234041	  0.908691	  0.061468	
2.259	  0.083455	  0.127310	  0.816740	  0.150091	  0.164616	  0.102459	  0.009545	  0.036626	  0.018673	  0.016271	  0.276894	  0.049776	  0.103469	  0.234000	  0.914238	  0.061570	
2.2595	  0.083252	  0.126537	  0.810925	  0.151009	  0.164306	  0.102304	  0.009541	  0.036723	  0.018860	  0.016310	  0.276601	  0.050361	  0.104923	  0.233940	  0.919647	  0.061665	
2.26	  0.083043	  0.125752	  0.805001	  0.151929	  0.164009	  0.102143	  0.009539	  0.036818	  0.019054	  0.016350	  0.276292	  0.050947	  0.106400	  0.233860	  0.924915	  0.061754	
2.2605	  0.082828	  0.124954	  0.798971	  0.152850	  0.163724	  0.101976	  0.009539	  0.036911	  0.019256	  0.016393	  0.275967	  0.051533	  0.107898	  0.233762	  0.930038	  0.061837	
2.261	  0.082608	  0.124145	  0.792839	  0.153774	  0.163450	  0.101803	  0.009542	  0.037003	  0.019466	  0.016437	  0.275625	  0.052118	  0.109419	  0.233644	  0.935009	  0.061913	
2.2615	  0.082382	  0.123323	  0.786607	  0.154699	  0.163187	  0.101624	  0.009548	  0.037094	  0.019684	  0.016484	  0.275266	  0.052703	  0.110962	  0.233506	  0.939825	  0.061983	
2.262	  0.082152	  0.122489	  0.780279	  0.155625	  0.162934	  0.101439	  0.009556	  0.037184	  0.019909	  0.016532	  0.274889	  0.053287	  0.112528	  0.233349	  0.944481	  0.062047	
2.2625	  0.081917	  0.121644	  0.773856	  0.156554	  0.162692	  0.101249	  0.009568	  0.037273	  0.020143	  0.016582	  0.274495	  0.053870	  0.114116	  0.233173	  0.948971	  0.062104	
2.263	  0.081677	  0.120787	  0.767343	  0.157483	  0.162461	  0.101052	  0.009582	  0.037362	  0.020385	  0.016634	  0.274083	  0.054452	  0.115727	  0.232978	  0.953290	  0.062156	
2.2635	  0.081432	  0.119919	  0.760741	  0.158414	  0.162240	  0.100849	  0.009600	  0.037450	  0.020636	  0.016688	  0.273652	  0.055032	  0.117361	  0.232762	  0.957436	  0.062201	
2.264	  0.081183	  0.119040	  0.754055	  0.159347	  0.162029	  0.100640	  0.009621	  0.037539	  0.020895	  0.016744	  0.273202	  0.055610	  0.119018	  0.232528	  0.961403	  0.062240	
2.2645	  0.080930	  0.118151	  0.747289	  0.160281	  0.161828	  0.100424	  0.009646	  0.037627	  0.021162	  0.016802	  0.272733	  0.056186	  0.120699	  0.232273	  0.965188	  0.062274	
2.265	  0.080673	  0.117251	  0.740446	  0.161215	  0.161636	  0.100203	  0.009674	  0.037716	  0.021438	  0.016861	  0.272245	  0.056759	  0.122403	  0.231999	  0.968789	  0.062302	
2.2655	  0.080412	  0.116341	  0.733532	  0.162151	  0.161454	  0.099975	  0.009706	  0.037805	  0.021723	  0.016923	  0.271737	  0.057330	  0.124130	  0.231706	  0.972204	  0.062324	
2.266	  0.080148	  0.115421	  0.726550	  0.163088	  0.161281	  0.099741	  0.009742	  0.037895	  0.022016	  0.016986	  0.271209	  0.057898	  0.125881	  0.231394	  0.975430	  0.062342	
2.2665	  0.079881	  0.114493	  0.719504	  0.164025	  0.161116	  0.099501	  0.009782	  0.037985	  0.022319	  0.017050	  0.270660	  0.058463	  0.127655	  0.231064	  0.978467	  0.062354	
2.267	  0.079610	  0.113555	  0.712400	  0.164963	  0.160959	  0.099254	  0.009827	  0.038077	  0.022630	  0.017117	  0.270092	  0.059025	  0.129454	  0.230715	  0.981313	  0.062362	
2.2675	  0.079338	  0.112609	  0.705241	  0.165900	  0.160811	  0.099001	  0.009876	  0.038170	  0.022950	  0.017185	  0.269504	  0.059583	  0.131276	  0.230349	  0.983972	  0.062365	
2.268	  0.079063	  0.111655	  0.698031	  0.166838	  0.160670	  0.098743	  0.009929	  0.038265	  0.023279	  0.017255	  0.268897	  0.060136	  0.133122	  0.229966	  0.986444	  0.062364	
